# xmcd CD database file
#
# Track frame offsets:
#	150
#	28539
#	50605
#	69751
#	87658
#	116445
#
# Disc length: 1928 seconds
#
# Revision: 0
# Processed by: cddbd v1.5.1PL0 Copyright (c) Steve Scherf et al.
# Submitted via: CDex 1.51
#
DISCID=47078606
DTITLE=ion - AIR@TRANCE -エアトラ-
DYEAR=1900
DGENRE=ゲーム
TTITLE0=夏影 -Epic Mix-
TTITLE1=跳ね水 -Trouble Mix-
TTITLE2=てんとう虫 -メカちるちる-
TTITLE3=神奈 -Century dab Mix-
TTITLE4=Farewell song -Summerwing Mix-
TTITLE5=青空  -HappySky Mix-
EXTD=
EXTT0=
EXTT1=
EXTT2=
EXTT3=
EXTT4=
EXTT5=
PLAYORDER=
